<?xml version="1.0" encoding="utf-8"?>
<!-- Generator: Adobe Illustrator 25.0.0, SVG Export Plug-In . SVG Version: 6.00 Build 0)  -->
<svg version="1.1" xmlns="http://www.w3.org/2000/svg" xmlns:xlink="http://www.w3.org/1999/xlink" x="0px" y="0px"
	 viewBox="0 0 930.5 657.9" style="enable-background:new 0 0 930.5 657.9;" xml:space="preserve">
<style type="text/css">
	.st0{fill:#FFFFFF;}
	.st1{fill:#7D65EF;}
	.st2{fill:#202020;}
</style>
<g id="Layer_6">
	<path class="st0" d="M686.4,280.1c-0.8-0.7-11.1-11.8-26.5-18.3c-6.2-2.7-12.8-4.2-19.5-4.6c-1.5-0.1-3-0.1-4.5,0h-0.1
		c-2.6,0.1-5.2,0.5-7.7,1.1l0,0l-1,0.2c-8.6,2.1-16.7,5.9-23.9,11c0,0,0,0.1-0.1,0.1c-9.3,6.7-17.1,15.2-22.9,25.1
		c-1.1,1.7-0.7,4,0.8,5.3c0.9,0.7,12.5,11.7,28.3,18.5c0,0,0,0,0,0c7.1,3.2,14.6,5,22.3,5.4l0,0c3.2,0.1,6.3-0.1,9.4-0.6
		c0.8-0.1,1.5-0.3,2.3-0.5c1.1-0.3,2.3-0.5,3.4-0.9c6.5-2,12.6-5.2,18-9.4l0,0c14.5-11.1,21.7-26.5,22.3-27.4
		C688.1,283.5,687.7,281.4,686.4,280.1z"/>
</g>
<g id="Layer_2">
	<path class="st1" d="M643.5,322.8c1.1-0.3,2.3-0.5,3.4-0.9c6.5-2,12.6-5.2,18-9.4c4.9-8.2,6.9-17.9,5.7-27.4
		c-1-8.7-4.7-16.9-10.6-23.4c-6.2-2.7-12.8-4.2-19.5-4.6c-1.5-0.1-3-0.1-4.5,0h-0.1c-2.6,0.1-5.2,0.5-7.7,1.1 M628.1,258.3l-1,0.2
		c-8.6,2.1-16.7,5.9-23.9,11c-4.1,7.8-5.7,16.7-4.6,25.5c1,8.8,4.8,17,10.8,23.5c7.1,3.2,14.6,5,22.3,5.4l0,0
		c3.2,0.1,6.3-0.1,9.4-0.6c0.8-0.1,1.5-0.3,2.3-0.5"/>
</g>
<g id="Layer_7">
	<path class="st2" d="M635.9,257.2h-0.1c-2.6,0.1-5.2,0.5-7.7,1.1c-3.7,6.5-5.8,18.8-5.2,32.7c0.7,14.6,4.2,27.1,8.8,32.9
		c3.2,0.1,6.3-0.1,9.4-0.6c0.8-0.1,1.5-0.3,2.3-0.5c3.8-6.4,6.1-18.9,5.4-33.1s-4.1-26.5-8.5-32.5
		C638.9,257.1,637.4,257.1,635.9,257.2z"/>
</g>
<g id="Layer_8">
	<circle class="st0" cx="638" cy="292.9" r="4.4"/>
</g>
<g id="Layer_9">
	<circle class="st0" cx="650.8" cy="279.5" r="8.3"/>
</g>
</svg>
