<svg id="Layer_1" data-name="Layer 1" xmlns="http://www.w3.org/2000/svg" viewBox="0 0 930.49 657.93">
    <defs>
        <style>
            .cls-1{fill:#272525;}.cls-2,.cls-3{fill:#ee3e47;stroke:#ee3e47;}.cls-2,.cls-3,.cls-5,.cls-6,.cls-7,.cls-8,.cls-9{stroke-linecap:round;}.cls-2,.cls-3,.cls-5,.cls-8,.cls-9{stroke-linejoin:round;}.cls-2{stroke-width:4px;}.cls-3{stroke-width:6px;}.cls-4{fill:#fff;}.cls-5,.cls-6,.cls-7,.cls-8,.cls-9{fill:none;stroke-width:5px;}.cls-5{stroke:#7d65ef;}.cls-6,.cls-9{stroke:#ffb127;}.cls-6,.cls-7{stroke-miterlimit:10;}.cls-7,.cls-8{stroke:#fff;}.cls-10{fill:#ffb127;}.cls-11{fill:#7d65ef;}.cls-12{fill:#202020;}
        </style>
    </defs>
    <rect class="cls-1" width="930.49" height="657.93"/>
    <path class="cls-2" d="M548.44,226.67s-18-14.1-22.4-5.17c-5.23,10.63,24.08,27.15,24.08,27.15s24.09-22.75,17.22-32.28C561,207.59,548.44,226.67,548.44,226.67Z"/>
    <path class="cls-3" d="M542,450.48s5.39,15.16,21.37,12.77S580.9,438,580.9,438s-7.8-11.35-10.58-10.1S542,450.48,542,450.48Z"/>
    <path class="cls-4" d="M484,608.47h-5.16v8.47h-7V588.82H484a11.75,11.75,0,0,1,8,2.65,9,9,0,0,1,3,7.07,9.23,9.23,0,0,1-3,7.17,11.45,11.45,0,0,1-8,2.76m2.94-6.89a4.2,4.2,0,0,0,1.11-3,3.83,3.83,0,0,0-1.11-2.93,4.74,4.74,0,0,0-3.35-1h-4.75v8.15h4.75a4.5,4.5,0,0,0,3.35-1.14"/>
    <polygon class="cls-4" points="450.73 613.63 444.58 607.48 438.43 613.63 433.83 609.03 439.98 602.88 433.84 596.73 438.44 592.13 444.58 598.28 450.74 592.13 455.34 596.74 449.18 602.88 455.33 609.04 450.73 613.63"/>
    <polygon class="cls-4" points="509.93 616.94 509.93 588.82 531.39 588.82 531.39 594.57 517.21 594.57 517.21 599.83 530.12 599.83 530.12 605.57 517.21 605.57 517.21 611.2 531.43 611.2 531.43 616.94 509.93 616.94"/>
    <polygon class="cls-4" points="410.27 588.82 410.27 605.25 399.28 588.82 392.48 588.82 392.48 616.94 399.49 616.94 399.49 600.51 410.44 616.94 417.29 616.94 417.29 588.82 410.27 588.82"/>
    <path class="cls-5" d="M257.7,196.46A57.51,57.51,0,0,0,275,213.35"/>
    <path class="cls-5" d="M268.45,175.61a36.59,36.59,0,0,0,5.6,15"/>
    <path class="cls-5" d="M249.5,216.25s10.6,13.61,30.46,24.16"/>
    <path class="cls-5" d="M242.74,237.88s20.46,19.64,47.67,31.28"/>
    <path class="cls-5" d="M239.15,260.91S266.5,283.8,298,291.65"/>
    <path class="cls-5" d="M236.11,283.8s17.39,11,33.12,18.78"/>
    <path class="cls-6" d="M287.16,310.45s16.46,8.89,35.92,8.89"/>
    <path class="cls-5" d="M236.11,307.64A176.77,176.77,0,0,0,282,331.11"/>
    <path class="cls-6" d="M301.68,337.11s19,7.88,37.91,6"/>
    <path class="cls-5" d="M236,333.11s17.69,10.51,30.05,14.64"/>
    <path class="cls-5" d="M282,354s15.59,8.64,38.68,11.64"/>
    <path class="cls-5" d="M236.77,358.75S272.65,379.43,307,384.3c1.12.16,2.26.3,3.4.43"/>
    <path class="cls-5" d="M246.81,385.35s18.12,7.47,35.15,9.57"/>
    <path class="cls-7" d="M380.26,278.8s-17.11-11.74-20.58-25.63"/>
    <path class="cls-7" d="M393.9,265.78s-13.64-15.61-16.64-30.9"/>
    <path class="cls-7" d="M410.42,256.16s-11.33-11.61-13.36-34.49"/>
    <path class="cls-7" d="M429.44,249.27s-9.63-11.47-10.76-32.21"/>
    <path class="cls-7" d="M448.31,246s-7-12-6.14-29.78"/>
    <path class="cls-7" d="M468.56,248.65a56.34,56.34,0,0,1-3.2-27.29"/>
    <path class="cls-7" d="M370.44,293.19s-17.08-4.92-26-14.95"/>
    <path class="cls-7" d="M345.23,316.84s15,2.4,28.9-4.39"/>
    <path class="cls-7" d="M358,337.11s22.64-3.41,30.59-11.28"/>
    <path class="cls-7" d="M366.63,358.51s22.12-1.38,37.21-19.4"/>
    <path class="cls-7" d="M400.41,368.64a50,50,0,0,0,18.27-19.23"/>
    <path class="cls-6" d="M436.08,356.41s-3.1,15.43-11.83,28.94"/>
    <path class="cls-6" d="M453.75,360.33s0,9.55-4.79,25"/>
    <path class="cls-6" d="M470.71,360s1.38,22.71-1.08,33.54"/>
    <path class="cls-7" d="M484.19,227.94c-1.13,5.26-.25,18.33,4.36,28.35"/>
    <path class="cls-7" d="M503.25,238.7c-.43,5.77,0,19.44,4.78,28"/>
    <path class="cls-5" d="M503.53,348.21c9.57-2.69,19.35-10.32,23.14-18.1"/>
    <path class="cls-5" d="M505.29,367.56a52.24,52.24,0,0,0,25.08-16.63"/>
    <path class="cls-7" d="M541.53,320.32a162.13,162.13,0,0,0,7.67,40"/>
    <path class="cls-7" d="M554.77,291.1c1.67,21.17,3.69,46.95,10.77,66.4"/>
    <path class="cls-7" d="M573.13,324.12c2.21,13.52,5.53,25.85,9.79,35.13"/>
    <path class="cls-6" d="M487.68,354.4c1.07,15.76,2.21,31.45,5.4,46.92"/>
    <path class="cls-6" d="M579.21,267.65A125.74,125.74,0,0,0,577.05,243"/>
    <path class="cls-6" d="M589.87,221.47c2.76,8.63,3.92,16,5.53,32"/>
    <path class="cls-6" d="M601.25,203s10.08,15.44,12,40.43"/>
    <path class="cls-6" d="M604.75,185s21.44,27.21,25.36,54.09"/>
    <path class="cls-5" d="M261.64,424.81c4.26,8.12,12.54,16.33,17.61,21.92"/>
    <path class="cls-5" d="M280.37,420.55s9.54,21.51,40.27,30.89"/>
    <path class="cls-6" d="M314.38,421.55s14.93,10.7,32.38,14.07"/>
    <path class="cls-6" d="M336.4,365.64s9.86.57,15.63-2.11"/>
    <path class="cls-6" d="M325.24,385.65s38.76-.3,53.68-7.79"/>
    <path class="cls-6" d="M378.21,394.78a78.89,78.89,0,0,0,29.25-14.64"/>
    <path class="cls-7" d="M539,386.06s14.11-12.39,30.63-12.95,22.44,7.46,22.44,7.46"/>
    <path class="cls-5" d="M508.29,385.55a48.36,48.36,0,0,0,22.31-13.37"/>
    <path class="cls-5" d="M302,236.17s-14.54-22.82-17.71-52.58"/>
    <path class="cls-5" d="M282,169.11s-1.81-29.84,0-47.86"/>
    <path class="cls-5" d="M284.78,103.23S292.1,68.88,298,59.87"/>
    <path class="cls-5" d="M306.56,52s19-20.65,39.23,16.7"/>
    <path class="cls-5" d="M320.37,62.55s-13.81,2.25-18.73,29.14"/>
    <path class="cls-5" d="M299.52,105.7s-3.34,9-3.37,46.11"/>
    <path class="cls-5" d="M296.73,168s1.39,14.53,5.28,33.25"/>
    <path class="cls-5" d="M311.33,137.75s-.06-5.91.87-15.84"/>
    <path class="cls-5" d="M349.4,84.23s4.41,2.11,11.17,16.47"/>
    <path class="cls-5" d="M311.85,151.16a439.19,439.19,0,0,0,6.83,59.61"/>
    <path class="cls-5" d="M329.12,161.59s-.42,14.92,4.58,44"/>
    <path class="cls-5" d="M345.23,158s1.62,18.64,4.28,36.29"/>
    <line class="cls-5" x1="359.68" y1="132.51" x2="366.63" y2="173.06"/>
    <path class="cls-5" d="M366.63,113.37s9.31,17.54,17.95,44.6"/>
    <path class="cls-6" d="M316.81,296.81a124.32,124.32,0,0,0,28,3.75"/>
    <path class="cls-6" d="M304,273.44s11.27,6.36,22.78,9.32"/>
    <path class="cls-6" d="M309.43,248.1a96.93,96.93,0,0,0,18.49,19"/>
    <path class="cls-6" d="M323.36,227.83s7.83,20,19.36,31.33"/>
    <path class="cls-6" d="M341.58,212.3s1.61,17.17,10.5,30.66"/>
    <path class="cls-6" d="M359.07,201.83a68.15,68.15,0,0,0,5.08,27.39"/>
    <path class="cls-6" d="M374.63,187.58a67.79,67.79,0,0,0,4,27.4"/>
    <path class="cls-6" d="M392.87,175.6s0,16.54,3.19,28.91"/>
    <path class="cls-6" d="M393.9,124s21.89,32.52,21.89,76.25"/>
    <path class="cls-6" d="M412.68,119.83a83.9,83.9,0,0,1,14.72,23.89"/>
    <path class="cls-6" d="M431.19,117.49s10.76,8.77,20.15,37.67"/>
    <path class="cls-6" d="M452.72,117.29s17.46,17.54,26.91,50.67"/>
    <path class="cls-6" d="M476.21,118.49a255.73,255.73,0,0,1,19.43,32.67"/>
    <path class="cls-6" d="M501.45,121.88s10.49,10,24,35.38"/>
    <path class="cls-6" d="M531.43,133.83s12.63,11.44,23.34,38.1"/>
    <path class="cls-6" d="M559.84,145.78S581,156.16,596.4,174.12"/>
    <path class="cls-6" d="M432,157.26a141.57,141.57,0,0,1,3.91,44"/>
    <path class="cls-6" d="M454.21,171.93s2.81,12.66,2.7,32.35"/>
    <path class="cls-6" d="M472.49,182.25a215.11,215.11,0,0,1,3.72,26.66"/>
    <path class="cls-6" d="M492.51,181.13s5.57,18.77,5.13,37.54"/>
    <path class="cls-6" d="M507.13,166.06S515,185.66,518.39,205"/>
    <path class="cls-6" d="M573.05,176.25A101.54,101.54,0,0,1,584.18,204"/>
    <path class="cls-6" d="M558.8,185.59s2.32,10,2.32,14.6"/>
    <path class="cls-6" d="M436.08,406.54s-13,22.28-30.18,33.81"/>
    <path class="cls-6" d="M392.84,432s-13.92,7.45-28.65,6.39"/>
    <path class="cls-6" d="M456.5,409.12s-2.4,11.74-11.41,26.5"/>
    <path class="cls-6" d="M475.91,419.17s.33,1.94-3.42,11.23"/>
    <path class="cls-6" d="M345.23,455.74s28.9,2.66,44.67-4.3"/>
    <path class="cls-6" d="M428.57,449.73s-16.71,14.65-34.45,19.15"/>
    <path class="cls-5" d="M293.82,462.16s16,11.19,45.77,13"/>
    <path class="cls-6" d="M356.56,477s14.88,1.08,21.78-1.84"/>
    <path class="cls-6" d="M458,443.73s-13,18.39-22,25.15"/>
    <path class="cls-6" d="M419.67,480.18s-17.38,9.35-29.77,10.1"/>
    <path class="cls-5" d="M324.39,490s28.59,7.19,47.49,2.68"/>
    <path class="cls-5" d="M361.56,513.09s33.84-1.17,57.53-12.92"/>
    <path class="cls-6" d="M436.08,490.28s22-12.1,32-26.78"/>
    <path class="cls-5" d="M391.88,525.76s32.43-3.57,53.71-18.68"/>
    <path class="cls-6" d="M461,497.17s19.37-8.33,27.84-28.95"/>
    <path class="cls-6" d="M507.78,470.38s-2.29,22.26-7.35,33.7"/>
    <path class="cls-5" d="M485.64,498.55a73.61,73.61,0,0,1-13.93,14.54"/>
    <path class="cls-5" d="M432.84,536.8s17-5,28.2-14.61"/>
    <path class="cls-5" d="M489.88,517.4s-10.18,19.4-21.79,24.81"/>
    <path class="cls-7" d="M525,471.22S525.17,507.37,508,538"/>
    <path class="cls-7" d="M545,482.71s-2,32.42-8.82,51.33"/>
    <path class="cls-7" d="M566.29,482.7s.37,24.41-6.54,44.08"/>
    <path class="cls-7" d="M587,468.22s0,28.95-5.49,49.18"/>
    <path class="cls-6" d="M605.08,461.13s2.41,22.76-2,38.75"/>
    <path class="cls-8" d="M481.23,445.23s27.55,9.12,47.67,5.26c29.35-5.64,41.67-28.16,41.67-28.16s12,15.77,29.29,19.9"/>
    <path class="cls-7" d="M463.39,102.86s18.11-22.22,26.7-32.17"/>
    <path class="cls-7" d="M485.09,103.92s18.82-29.81,23.46-36.66"/>
    <line class="cls-7" x1="502.63" y1="105.2" x2="512.76" y2="83.5"/>
    <line class="cls-7" x1="517.91" y1="109.37" x2="527.76" y2="71.27"/>
    <line class="cls-7" x1="538" y1="83.5" x2="533.77" y2="115.42"/>
    <line class="cls-7" x1="548.42" y1="62.4" x2="550.67" y2="128.57"/>
    <path class="cls-7" d="M543.63,51.14S538,40.44,525.05,41s-26.47,18.31-26.47,18.31"/>
    <path class="cls-7" d="M520.26,56.77a11.08,11.08,0,0,1,12.67,0"/>
    <path class="cls-7" d="M193.56,385.16s17.27.68,24.59,5.51,23.91,13.59,36.83,12.77,23.61-4.83,37.5-12.77,33.08-8.51,51.74,2,29.54,12.72,44.18,10.77,23.65-16.87,47.68-18.7,37.54,13,47.3,16.58a43.66,43.66,0,0,0,18,2.61"/>
    <path class="cls-7" d="M193.56,407s17.27.68,24.59,5.51,23.91,13.59,36.83,12.77,23.61-4.83,37.5-12.77,33.08-8.51,51.74,2,29.54,12.72,44.18,10.77,23.65-16.87,47.68-18.7,37.54,13,47.3,16.58a43.66,43.66,0,0,0,18,2.61"/>
    <path class="cls-7" d="M523.73,253.17A93.82,93.82,0,0,0,525.42,270a62,62,0,0,0,6.18,16.81"/>
    <polyline class="cls-9" points="559.7 265.46 553.72 274.92 546.29 266.27"/>
    <line class="cls-6" x1="329.1" y1="128.77" x2="342.54" y2="142.57"/>
    <line class="cls-6" x1="342.54" y1="128.77" x2="329.1" y2="142.57"/>
    <path class="cls-5" d="M336.82,77.78s-9.21-6-16.33,5.35c-4.09,6.48-6.41,22.45-6.76,25.2"/>
    <path class="cls-5" d="M327.85,109.6s1-7.75,5.36-10.3c5-2.94,11.33-1.83,18.3,16"/>
    <path class="cls-9" d="M617.7,443.81a49.19,49.19,0,0,1,5.61,24.41"/>
    <path class="cls-9" d="M630.35,433.12a33.48,33.48,0,0,1,4.91,12"/>
    <path class="cls-6" d="M647.71,338.89s0,6.92,8.42,12.59"/>
    <path class="cls-6" d="M633.63,341.89s-.59,16.6,17.43,35.16"/>
    <path class="cls-6" d="M618.13,339.46s-3.41,17.26,12.22,44.08"/>
    <path class="cls-7" d="M613.93,417.86s13.38-.42,24.59,5.51c7.75,4.09,23.92,13.59,36.83,12.77s23.61-4.83,37.5-12.77a46.42,46.42,0,0,1,24.09-5.92"/>
    <path class="cls-7" d="M613.93,395.84s13.38-.43,24.59,5.5c7.75,4.1,23.92,13.59,36.83,12.77s23.61-4.83,37.5-12.77a46.51,46.51,0,0,1,24.09-5.92"/>
    <path class="cls-6" d="M601.28,335s-3.88,18.34,7.08,44.1"/>
    <circle class="cls-10" cx="530.04" cy="421.55" r="3.26"/>
    <circle class="cls-10" cx="517.71" cy="414.16" r="3.26"/>
    <circle class="cls-10" cx="589.26" cy="396.72" r="3.26"/>
    <circle class="cls-10" cx="601.24" cy="409.13" r="3.26"/>
    <circle class="cls-10" cx="584.26" cy="409.13" r="3.26"/>
    <circle class="cls-10" cx="604.75" cy="426.81" r="3.26"/>
    <circle class="cls-10" cx="541.53" cy="409.12" r="3.26"/>
    <circle class="cls-10" cx="543.16" cy="428.82" r="3.26"/>
    <circle class="cls-10" cx="556.15" cy="417.44" r="3.26"/>
    <circle class="cls-10" cx="519.45" cy="436.88" r="3.26"/>
    <circle class="cls-10" cx="589.87" cy="421.55" r="3.26"/>
    <circle class="cls-10" cx="551.77" cy="397.72" r="3.26"/>
    <path class="cls-4" d="M428.39,271.33a91.56,91.56,0,0,0-33.67,21.73,4.11,4.11,0,0,0-1.3,2.82,4.26,4.26,0,0,0,1,3c.88,1,12.65,17.62,30.67,29.09a46.21,46.21,0,0,1-8-26.19A45.71,45.71,0,0,1,428.39,271.33Z"/>
    <path class="cls-4" d="M516.88,304.15c-.78-1-11-17.55-28.73-28.41a46.25,46.25,0,0,1,7.84,26A45.41,45.41,0,0,1,482.8,334.2c20.24-8,32.82-23.64,33.73-24.55A4.29,4.29,0,0,0,516.88,304.15Z"/>
    <path class="cls-11" d="M441.35,301c0-14.44,2.82-27.11,7.07-34.25a82.08,82.08,0,0,0-20,4.58,45.71,45.71,0,0,0-11.3,30.43,46.21,46.21,0,0,0,8,26.19,68,68,0,0,0,25.39,10.16C445.09,331.91,441.35,317.63,441.35,301Z"/>
    <path class="cls-11" d="M496,301.76a46.25,46.25,0,0,0-7.84-26,62.72,62.72,0,0,0-23.6-8.77c4.18,7.18,6.95,19.73,6.95,34,0,17.23-4,31.93-9.69,37.75.31,0,.63,0,.94,0a65,65,0,0,0,20.05-4.52A45.41,45.41,0,0,0,496,301.76Z"/>
    <path class="cls-12" d="M455.66,266.34q-3.72,0-7.24.41c-4.25,7.14-7.07,19.81-7.07,34.25,0,16.63,3.74,30.91,9.1,37.11a54.56,54.56,0,0,0,5.62.63c1.24.05,2.47.07,3.7.07l2-.06c5.66-5.82,9.69-20.52,9.69-37.75,0-14.3-2.77-26.85-6.95-34a56.25,56.25,0,0,0-8-.61Z"/>
    <circle class="cls-4" cx="473.87" cy="289.75" r="8.04"/>
    <circle class="cls-4" cx="461.6" cy="302.67" r="4.25"/>
    <path class="cls-4" d="M598.58,295a42.82,42.82,0,0,1,4.61-25.44,82.49,82.49,0,0,0-23,25.15,4.07,4.07,0,0,0,.82,5.26c.88.7,12.51,11.69,28.39,18.55A41.83,41.83,0,0,1,598.58,295Z"/>
    <path class="cls-4" d="M686.37,280.1c-.8-.71-11.13-11.83-26.46-18.32a42,42,0,0,1,10.64,23.36,42.65,42.65,0,0,1-5.71,27.38c14.54-11.14,21.71-26.46,22.29-27.42A4.09,4.09,0,0,0,686.37,280.1Z"/>
    <path class="cls-11" d="M670.55,285.14a42,42,0,0,0-10.64-23.36,56,56,0,0,0-19.55-4.57c4.44,6,7.86,18.19,8.52,32.47s-1.58,26.68-5.41,33.09c1.14-.26,2.27-.54,3.37-.87a56.14,56.14,0,0,0,18-9.38A42.65,42.65,0,0,0,670.55,285.14Z"/>
    <path class="cls-11" d="M622.9,291c-.65-13.92,1.49-26.18,5.18-32.71l-1,.21a70.3,70.3,0,0,0-23.9,11A42.82,42.82,0,0,0,598.58,295a41.83,41.83,0,0,0,10.79,23.52,62.26,62.26,0,0,0,22.35,5.39C627.13,318.07,623.58,305.61,622.9,291Z"/>
    <path class="cls-12" d="M635.9,257.22h-.11a47.8,47.8,0,0,0-7.71,1.08c-3.69,6.53-5.83,18.79-5.18,32.71.68,14.6,4.23,27.06,8.82,32.86a45,45,0,0,0,9.44-.62c.78-.14,1.54-.31,2.31-.48,3.83-6.41,6.07-18.89,5.41-33.09s-4.08-26.51-8.52-32.47C638.89,257.15,637.41,257.14,635.9,257.22Z"/>
    <circle class="cls-4" cx="650.77" cy="279.46" r="8.34"/>
    <circle class="cls-4" cx="638.04" cy="292.87" r="4.41"/>
    <path class="cls-6" d="M532.87,171.93s5.33,13.89,6.64,25.53"/>
</svg>
