<svg xmlns="http://www.w3.org/2000/svg" viewBox="0 0 930.49 657.93" id="animation-main">
    <defs>
        <!-- eye overlay masks -->
        <mask id="eye-left-mask">
            <g class="eye-transform">
                <path class="f-high" d="
        M455.63,266.34
        q-3.72,0 -7.24,0.41
        a82.08,82.08,0,0,0-20,4.58
        a91.56,91.56,0,0,0-33.67,21.73
        a4.11,4.11,0,0,0-1.3,2.82
        a4.26,4.26,0,0,0,1,3
        c.88,1,12.65,17.62,30.67,29.09
        a68,68,0,0,0,25.39,10.16
        a54.56,54.56,0,0,0,11.32.7
        a65,65,0,0,0,20.99-4.52
        c20.24-8,32.82-23.64,33.73-24.55
        a4.29 4.29 0 00.35-5.5
        c-.78-1-11-17.55-28.73-28.41
        a62.72,62.72,0,0,0 -23.6 -8.77
        a56.25,56.25,0,0,0-8.91-0.74Z"/>
            </g>
        </mask>
        <mask id="eye-right-mask">
            <g class="eye-transform">
                <path class="f-high" d="
        M640.5,257.26
        a47.8,47.8,0,0,0-12.739,1.09
        a70.3,70.3,0,0,0-24.9,11.21
        a82.49,82.49,0,0,0-23,25.15,4.07,4.07,0,0,0,.82,5.26
        c.88.7,12.51,11.69,28.39,18.55
        a62.26,62.26,0,0,0,22.35,5.39
        a45,45,0,0,0,9.44-.62
        c.78-.14,1.54-.31,2.31-.48
        c1.14-.26,2.27-.54,3.37-.87
        a56.14,56.14,0,0,0,18-9.38
        c14.54-11.14,21.71-26.46,22.29-27.42
        a4.09,4.09,0,0,0,0.76,-5
        c-.8-.71-11.13-11.83-26.46-18.32
        a56,56,0,0,0-20.631-4.56z"/>
            </g>
        </mask>

    </defs>

    <g id="eye-left" mask="url(#eye-left-mask)">
        <path id="eye-left-core" class="f-high" d="
        M455.63,266.34
        q-3.72,0 -7.24,0.41
        a82.08,82.08,0,0,0-20,4.58
        a91.56,91.56,0,0,0-33.67,21.73
        a4.11,4.11,0,0,0-1.3,2.82
        a4.26,4.26,0,0,0,1,3
        c.88,1,12.65,17.62,30.67,29.09
        a68,68,0,0,0,25.39,10.16
        a54.56,54.56,0,0,0,11.32.7
        a65,65,0,0,0,20.99-4.52
        c20.24-8,32.82-23.64,33.73-24.55
        a4.29 4.29 0 00.35-5.5
        c-.78-1-11-17.55-28.73-28.41
        a62.72,62.72,0,0,0 -23.6 -8.77
        a56.25,56.25,0,0,0-8.91-0.74Z"/>
        <ellipse id="eye-left-iris" cx="456.65" cy="301" rx="39.5" ry="43.66" stroke-width="0" class="f-dark"/>
        <path id="eye-left-lens" class="f-black" d="
        M450.92,257.35
        c-4.25,7.14 -7.57,19.81 -9.07,34.25 s3.24,44.91, 10.6,52.91
        a44.56,44.56,0,0,0,7.5 0
        c5.66-5.82, 9.69-20.52, 11.19-37.75 s-2.77-34.85 -9.45-49.4
        a48.25,48.25,0,0,0 -10.77 -0.01Z"/>

        <g id="eye-left-light">
            <circle class="f-high" cx="473.87" cy="289.75" r="8.04"/>
            <circle class="f-high" cx="461.6" cy="302.67" r="4.25"/>
        </g>
    </g>

    <g id="eye-right" mask="url(#eye-right-mask)">
        <path id="eye-right-core" class="f-high" d="
        M640.5,257.26
        a47.8,47.8,0,0,0-12.739,1.09
        a70.3,70.3,0,0,0-24.9,11.21
        a82.49,82.49,0,0,0-23,25.15,4.07,4.07,0,0,0,.82,5.26
        c.88.7,12.51,11.69,28.39,18.55
        a62.26,62.26,0,0,0,22.35,5.39
        a45,45,0,0,0,9.44-.62
        c.78-.14,1.54-.31,2.31-.48
        c1.14-.26,2.27-.54,3.37-.87
        a56.14,56.14,0,0,0,18-9.38
        c14.54-11.14,21.71-26.46,22.29-27.42
        a4.09,4.09,0,0,0,0.76,-5
        c-.8-.71-11.13-11.83-26.46-18.32
        a56,56,0,0,0-20.631-4.56Z"/>
        <ellipse id="eye-right-iris" cx="634.61" cy="290.34" rx="37.03" ry="40.66" stroke-width="0" class="f-dark"/>
        <path id="eye-right-lens" class="f-black" d="
        M637.09,249.61
        a40.8,40.8,0,0,0-8.09,0.79
        c-3.69,7.53-5.83,18.79-5.98,40.61 0.68,14.6,4.23,29.06,10.82,40.36
        a45,45,0,0,0,8.75-1.1
        c3.33-6.61,6.37-23.89,5.91-40.59
        s-6.08-32.51-11.41-40.07Z"/>

        <g id="eye-right-light">
            <circle class="f-high" cx="650.77" cy="279.46" r="8.34"/>
            <circle class="f-high" cx="638.04" cy="292.87" r="4.41"/>
        </g>
    </g>

    <!-- dev helper: container for custom anchors -->
    <g id="anchors" class="js-anchor-display">
    </g>

</svg>
