<svg id="Layer_1" data-name="Layer 1" xmlns="http://www.w3.org/2000/svg" viewBox="0 0 841.89 595.28">
    <defs>
        <style>
            .cls-1{fill:#272525;}
            .cls-2{fill:#ee3e47;}.cls-3{fill:#fff;}.cls-4{fill:#7d65ef;}.cls-5{fill:#ffb127;}.cls-6{fill:#202020;}
        </style>
    </defs>
    <rect class="cls-1" width="841.89" height="595.28"/>
    <path class="cls-2" d="M511.35,203.62s-16.75-13.11-20.84-4.81c-4.87,9.89,22.4,25.27,22.4,25.27s22.42-21.17,16-30C523,185.87,511.35,203.62,511.35,203.62Z"/>
    <path class="cls-2" d="M512.91,225.94a1.85,1.85,0,0,1-.91-.24c-2.95-1.67-28.65-16.57-23.16-27.71a6.5,6.5,0,0,1,4.5-3.59c5.69-1.3,14,4,17.58,6.58,2.51-3.44,8.53-10.83,14.07-10.95a6.39,6.39,0,0,1,5.45,2.92c7.15,9.91-13.83,30.2-16.25,32.48A1.89,1.89,0,0,1,512.91,225.94Zm-17.66-28a4.74,4.74,0,0,0-1.09.11,2.79,2.79,0,0,0-2,1.61c-1.54,3.12,1.6,8.11,8.85,14.05a102.37,102.37,0,0,0,11.6,8.06,103.76,103.76,0,0,0,9.23-10.52c5.65-7.53,7.62-13.25,5.57-16.1a2.71,2.71,0,0,0-2.36-1.37c-3.68.07-9.42,6.72-12.17,10.89a1.9,1.9,0,0,1-1.25.81,1.88,1.88,0,0,1-1.45-.37C506.45,202.15,499.44,197.92,495.25,197.92Z"/>
    <path class="cls-2" d="M505.4,411.86s5,14.11,19.88,11.88,16.27-23.53,16.27-23.53-7.26-10.56-9.84-9.4S505.4,411.86,505.4,411.86Z"/>
    <path class="cls-2" d="M522.21,426.77c-11.35,0-17.62-8.84-19.44-14a2.77,2.77,0,0,1,.84-3.07c7.22-6.06,24.31-20.27,27-21.46,1.29-.58,4.71-2.12,13.28,10.35a2.79,2.79,0,0,1,.49,1.77c-.07,1-1.75,23.58-18.65,26.11A22.37,22.37,0,0,1,522.21,426.77Zm-13.39-14.13c1.74,3.25,6.49,9.78,16,8.34,10.88-1.63,13.35-16.16,13.81-20-2.34-3.28-5-6.32-6.39-7.24C529.19,395.83,517.55,405.35,508.82,412.64Zm-3.42-.78h0Z"/>
    <path class="cls-3" d="M441.46,558.86h-4.79v7.89h-6.49V540.59h11.28a10.93,10.93,0,0,1,7.48,2.46,8.36,8.36,0,0,1,2.79,6.58,8.59,8.59,0,0,1-2.83,6.67,10.66,10.66,0,0,1-7.44,2.56m2.74-6.41a3.88,3.88,0,0,0,1-2.82,3.57,3.57,0,0,0-1-2.73,4.44,4.44,0,0,0-3.11-1h-4.42v7.59h4.42a4.16,4.16,0,0,0,3.11-1.07"/>
    <polygon class="cls-3" points="410.5 563.67 404.78 557.95 399.06 563.67 394.78 559.39 400.5 553.67 394.78 547.94 399.07 543.66 404.79 549.39 410.51 543.67 414.79 547.95 409.06 553.67 414.78 559.39 410.5 563.67"/>
    <polygon class="cls-3" points="465.58 566.75 465.58 540.59 485.55 540.59 485.55 545.93 472.36 545.93 472.36 550.83 484.37 550.83 484.37 556.17 472.36 556.17 472.36 561.41 485.59 561.41 485.59 566.75 465.58 566.75"/>
    <polygon class="cls-3" points="372.86 540.59 372.86 555.87 362.63 540.59 356.3 540.59 356.3 566.75 362.83 566.75 362.83 551.46 373.01 566.75 379.39 566.75 379.39 540.59 372.86 540.59"/>
    <path class="cls-4" d="M257,193.55a2.34,2.34,0,0,1-1.26-.37,55.5,55.5,0,0,1-16.86-16.48,2.33,2.33,0,1,1,4-2.38,51.75,51.75,0,0,0,15.38,15,2.32,2.32,0,0,1-1.26,4.28Z"/>
    <path class="cls-4" d="M256.05,172.37a2.33,2.33,0,0,1-1.92-1,36.25,36.25,0,0,1-5.61-15,2.33,2.33,0,0,1,4.63-.49A31.82,31.82,0,0,0,258,168.73a2.33,2.33,0,0,1-.61,3.23A2.28,2.28,0,0,1,256.05,172.37Z"/>
    <path class="cls-4" d="M261.55,218.73a2.37,2.37,0,0,1-1.09-.27c-18.71-9.93-28.68-22.57-29.09-23.1A2.33,2.33,0,1,1,235,192.5c.14.18,9.86,12.43,27.6,21.85a2.33,2.33,0,0,1-1.09,4.38Z"/>
    <path class="cls-4" d="M271.27,245.49a2.29,2.29,0,0,1-.91-.19c-25.42-10.87-44.26-28.81-45.05-29.57a2.33,2.33,0,0,1,3.22-3.36c.19.18,19,18.13,43.66,28.65a2.33,2.33,0,0,1-.92,4.47Z"/>
    <path class="cls-4" d="M278.34,266.41a2.2,2.2,0,0,1-.56-.07c-29.5-7.35-54.65-28.19-55.7-29.07a2.33,2.33,0,0,1,3-3.57c.25.21,25.4,21,53.85,28.13a2.32,2.32,0,0,1-.57,4.58Z"/>
    <path class="cls-4" d="M251.56,276.58a2.39,2.39,0,0,1-1-.24c-14.58-7.2-30.86-17.49-31-17.59a2.33,2.33,0,0,1,2.49-3.93c.16.1,16.25,10.26,30.6,17.34a2.33,2.33,0,0,1-1,4.42Z"/>
    <path class="cls-5" d="M301.66,292.17c-18.48,0-33.88-8.2-34.52-8.54a2.33,2.33,0,0,1,2.21-4.1c.15.08,15,8,32.31,8a2.33,2.33,0,1,1,0,4.65Z"/>
    <path class="cls-4" d="M263.41,303.12a2.45,2.45,0,0,1-.75-.12,165.48,165.48,0,0,1-43.33-22.19,2.33,2.33,0,0,1,2.83-3.69,164.17,164.17,0,0,0,42,21.48,2.32,2.32,0,0,1-.75,4.52Z"/>
    <path class="cls-5" d="M311.38,314.57a88.39,88.39,0,0,1-30.52-6,2.33,2.33,0,0,1,1.78-4.3c.18.08,17.34,7.09,34.16,5.43a2.33,2.33,0,1,1,.46,4.63C315.29,314.48,313.32,314.57,311.38,314.57Z"/>
    <path class="cls-4" d="M248.59,318.6a2.07,2.07,0,0,1-.73-.12c-11.61-3.87-27.74-13.42-28.42-13.82a2.33,2.33,0,0,1,2.38-4c.16.09,16.38,9.69,27.51,13.41a2.32,2.32,0,0,1-.74,4.53Z"/>
    <path class="cls-4" d="M299.39,335.26l-.3,0c-21.67-2.82-36.2-10.77-36.81-11.1a2.33,2.33,0,0,1,2.26-4.07,109.71,109.71,0,0,0,35.15,10.55,2.33,2.33,0,0,1-.3,4.64Z"/>
    <path class="cls-4" d="M289.85,353l-.26,0c-1.08-.12-2.16-.25-3.23-.41-32-4.54-64.78-23.26-66.16-24.06a2.33,2.33,0,1,1,2.32-4c.33.19,33.38,19.07,64.49,23.49q1.53.21,3.09.39a2.33,2.33,0,0,1-.25,4.64Z"/>
    <path class="cls-4" d="M263.41,362.5a1.46,1.46,0,0,1-.29,0c-16-2-32.61-8.77-33.31-9.06a2.33,2.33,0,1,1,1.78-4.3c.16.07,16.77,6.85,32.11,8.75a2.32,2.32,0,0,1-.29,4.63Z"/>
    <path class="cls-3" d="M354.87,254.46a2.39,2.39,0,0,1-1.32-.41c-.68-.47-16.68-11.59-20.09-25.21a2.33,2.33,0,1,1,4.52-1.12c3,11.9,18.06,22.39,18.21,22.49a2.33,2.33,0,0,1-1.32,4.25Z"/>
    <path class="cls-3" d="M367.56,242.34a2.3,2.3,0,0,1-1.75-.8c-.54-.61-13.13-15.16-16-29.83a2.33,2.33,0,0,1,4.57-.9c2.64,13.44,14.83,27.53,14.95,27.67a2.32,2.32,0,0,1-1.75,3.86Z"/>
    <path class="cls-3" d="M382.93,233.39a2.32,2.32,0,0,1-1.66-.7c-.46-.47-11.14-11.65-13.09-33.51a2.32,2.32,0,1,1,4.63-.42c1.8,20.12,11.69,30.58,11.79,30.68a2.33,2.33,0,0,1-1.67,3.95Z"/>
    <path class="cls-3" d="M400.63,227a2.31,2.31,0,0,1-1.78-.83c-.39-.46-9.48-11.5-10.56-31.34a2.33,2.33,0,0,1,2.2-2.45,2.31,2.31,0,0,1,2.45,2.2c1,18.2,9.39,28.5,9.47,28.6a2.32,2.32,0,0,1-1.78,3.82Z"/>
    <path class="cls-3" d="M418.19,224a2.32,2.32,0,0,1-2-1.15c-.28-.48-6.9-11.95-6-29a2.33,2.33,0,0,1,4.65.24c-.8,15.59,5.33,26.31,5.39,26.42a2.32,2.32,0,0,1-.83,3.18A2.4,2.4,0,0,1,418.19,224Z"/>
    <path class="cls-3" d="M437,226.4a2.31,2.31,0,0,1-2.14-1.42,54.29,54.29,0,0,1-3.14-26.64,2.33,2.33,0,1,1,4.6.69,50.17,50.17,0,0,0,2.82,24.14,2.33,2.33,0,0,1-1.24,3.05A2.37,2.37,0,0,1,437,226.4Z"/>
    <path class="cls-3" d="M345.73,267.84a2.48,2.48,0,0,1-.65-.09c-.67-.19-16.63-4.87-25.29-14.6a2.33,2.33,0,0,1,3.48-3.09c7.75,8.71,23,13.18,23.1,13.22a2.33,2.33,0,0,1-.64,4.56Z"/>
    <path class="cls-3" d="M328.42,290.24a44.69,44.69,0,0,1-6.52-.42,2.33,2.33,0,1,1,.74-4.6h0c.13,0,13.41,2,25.51-3.87a2.33,2.33,0,0,1,2,4.18A50.45,50.45,0,0,1,328.42,290.24Z"/>
    <path class="cls-3" d="M334.14,308.71a2.33,2.33,0,0,1-.34-4.63c.2,0,20.4-3.14,27.17-9.84a2.33,2.33,0,0,1,3.28,3.3c-7.85,7.77-28.87,11-29.76,11.14A2,2,0,0,1,334.14,308.71Z"/>
    <path class="cls-3" d="M342.18,328.62A2.33,2.33,0,0,1,342,324c.21,0,19.79-1.47,33-17.22a2.33,2.33,0,0,1,3.57,3c-14.51,17.33-35.38,18.82-36.26,18.87Z"/>
    <path class="cls-3" d="M373.62,338.05a2.32,2.32,0,0,1-1.09-4.38,44.68,44.68,0,0,0,16-17,2.33,2.33,0,0,1,4.09,2.22,48.71,48.71,0,0,1-18,18.85A2.37,2.37,0,0,1,373.62,338.05Z"/>
    <path class="cls-5" d="M395.8,353.59a2.33,2.33,0,0,1-2-3.58c7.78-12,10.65-26,10.68-26.13a2.32,2.32,0,0,1,4.56.91,89.48,89.48,0,0,1-11.33,27.74A2.31,2.31,0,0,1,395.8,353.59Z"/>
    <path class="cls-5" d="M418.79,353.61a2.37,2.37,0,0,1-.69-.11,2.32,2.32,0,0,1-1.53-2.91c4.29-13.83,4.35-22.52,4.35-22.61a2.34,2.34,0,0,1,2.33-2.32h0a2.33,2.33,0,0,1,2.33,2.32c0,.38-.05,9.41-4.57,24A2.33,2.33,0,0,1,418.79,353.61Z"/>
    <path class="cls-5" d="M438,361.21a2.33,2.33,0,0,1-2.27-2.84c2.18-9.63,1-30.34.94-30.54a2.33,2.33,0,0,1,4.65-.29c0,.88,1.28,21.58-1.06,31.86A2.32,2.32,0,0,1,438,361.21Z"/>
    <path class="cls-3" d="M455.63,233.51a2.32,2.32,0,0,1-2.11-1.35c-4.54-9.85-5.37-22.5-4.22-27.84a2.33,2.33,0,1,1,4.55,1c-.87,4-.31,15.81,3.89,24.92a2.32,2.32,0,0,1-1.13,3.08A2.29,2.29,0,0,1,455.63,233.51Z"/>
    <path class="cls-3" d="M473.75,243.2a2.34,2.34,0,0,1-2-1.19c-4.71-8.44-5.16-21.59-4.74-27.37a2.33,2.33,0,1,1,4.64.34c-.45,6.16.29,17.83,4.16,24.76a2.32,2.32,0,0,1-2,3.46Z"/>
    <path class="cls-4" d="M469.56,319a2.33,2.33,0,0,1-.63-4.57c8.24-2.31,16.87-9,20.08-15.62a2.33,2.33,0,1,1,4.18,2c-3.79,7.78-13.46,15.38-23,18.06A2.28,2.28,0,0,1,469.56,319Z"/>
    <path class="cls-4" d="M471.2,337a2.32,2.32,0,0,1-.67-4.55,45.94,45.94,0,0,0,22.23-14.76,2.33,2.33,0,1,1,3.54,3,51.12,51.12,0,0,1-24.43,16.19A2.22,2.22,0,0,1,471.2,337Z"/>
    <path class="cls-3" d="M512.06,330.3a2.33,2.33,0,0,1-2.21-1.61,152.48,152.48,0,0,1-7.24-37.78,2.32,2.32,0,1,1,4.64-.3,148.52,148.52,0,0,0,7,36.64,2.32,2.32,0,0,1-1.49,2.93A2.27,2.27,0,0,1,512.06,330.3Z"/>
    <path class="cls-3" d="M527.26,327.68a2.33,2.33,0,0,1-2.19-1.53c-6.68-18.36-8.6-42.7-10.14-62.27v-.12a2.33,2.33,0,1,1,4.64-.37v.13c1.52,19.28,3.41,43.28,9.88,61a2.33,2.33,0,0,1-1.4,3A2.2,2.2,0,0,1,527.26,327.68Z"/>
    <path class="cls-3" d="M543.44,329.31a2.34,2.34,0,0,1-2.12-1.36c-3.92-8.53-7.13-20-9.29-33.28a2.33,2.33,0,1,1,4.59-.75c2.09,12.83,5.18,23.93,8.93,32.09a2.33,2.33,0,0,1-1.14,3.08A2.28,2.28,0,0,1,543.44,329.31Z"/>
    <path class="cls-5" d="M459.84,368.45a2.34,2.34,0,0,1-2.28-1.86c-3.1-15-4.14-30.4-5.06-44a2.33,2.33,0,1,1,4.64-.31c.91,13.4,1.94,28.6,5,43.33a2.33,2.33,0,0,1-1.81,2.75A2.59,2.59,0,0,1,459.84,368.45Z"/>
    <path class="cls-5" d="M540,244.08h-.08a2.32,2.32,0,0,1-2.24-2.41,116,116,0,0,0-2-22.47,2.32,2.32,0,1,1,4.57-.84,118.64,118.64,0,0,1,2.06,23.48A2.33,2.33,0,0,1,540,244.08Z"/>
    <path class="cls-5" d="M555,230.9a2.32,2.32,0,0,1-2.31-2.09c-1.56-15.51-2.64-21.81-5.05-29.32a2.33,2.33,0,0,1,4.44-1.41c2.76,8.63,3.8,16,5.24,30.26a2.33,2.33,0,0,1-2.08,2.55Z"/>
    <path class="cls-5" d="M571.7,221.57a2.33,2.33,0,0,1-2.32-2.14c-1.76-22.32-10.75-36.4-10.84-36.54a2.33,2.33,0,0,1,3.9-2.54c.4.61,9.72,15.14,11.58,38.71a2.33,2.33,0,0,1-2.14,2.5Z"/>
    <path class="cls-5" d="M587.34,217.46a2.33,2.33,0,0,1-2.3-2c-3.52-24.09-22.92-49-23.12-49.23a2.33,2.33,0,0,1,3.66-2.87c.83,1,20.37,26.09,24.06,51.43a2.31,2.31,0,0,1-2,2.63Z"/>
    <path class="cls-4" d="M260.88,410.71a2.31,2.31,0,0,1-1.72-.77c-.78-.86-1.65-1.79-2.56-2.77-4.77-5.14-10.72-11.54-14.16-18.11a2.33,2.33,0,1,1,4.12-2.16c3.15,6,8.86,12.16,13.45,17.1.93,1,1.8,1.94,2.6,2.82a2.32,2.32,0,0,1-.17,3.28A2.28,2.28,0,0,1,260.88,410.71Z"/>
    <path class="cls-4" d="M299.39,415.09a2.35,2.35,0,0,1-.68-.11c-29.26-8.93-38.53-29.16-38.91-30a2.33,2.33,0,0,1,4.25-1.89h0c.09.19,8.89,19.18,36,27.46a2.33,2.33,0,0,1-.68,4.56Z"/>
    <path class="cls-5" d="M323.7,400.37a2.25,2.25,0,0,1-.44,0c-16.55-3.21-30.46-13.08-31-13.49a2.33,2.33,0,1,1,2.71-3.79c.13.1,13.69,9.71,29.21,12.71a2.33,2.33,0,0,1-.44,4.61Z"/>
    <path class="cls-5" d="M316.15,335.3c-1.27,0-2.11,0-2.22-.05a2.32,2.32,0,0,1,.26-4.64c.09,0,8.67.46,13.43-1.76a2.33,2.33,0,0,1,2,4.23C325.4,335,319.37,335.3,316.15,335.3Z"/>
    <path class="cls-5" d="M303.68,353.87a2.33,2.33,0,0,1,0-4.65c.36,0,35.68-.35,48.92-7a2.33,2.33,0,1,1,2.08,4.16c-14.2,7.13-49.47,7.48-51,7.49Z"/>
    <path class="cls-5" d="M353,361.44a2.33,2.33,0,0,1-.48-4.6,71.91,71.91,0,0,0,26.26-13.18,2.33,2.33,0,1,1,2.88,3.66,75.32,75.32,0,0,1-28.17,14.07A2.81,2.81,0,0,1,353,361.44Z"/>
    <path class="cls-3" d="M502.57,354.26a2.33,2.33,0,0,1-1.54-4.08c.56-.49,13.94-12.08,30-12.63,16.4-.57,22.58,7.55,22.83,7.89a2.32,2.32,0,0,1-3.74,2.76c-.19-.24-5.11-6.46-18.93-6-14.33.49-26.92,11.37-27,11.48A2.3,2.3,0,0,1,502.57,354.26Z"/>
    <path class="cls-4" d="M474,353.78a2.33,2.33,0,0,1-.53-4.59h0A43.08,43.08,0,0,0,493,337.45a2.32,2.32,0,1,1,3.43,3.13,47,47,0,0,1-22,13.14A2.46,2.46,0,0,1,474,353.78Z"/>
    <path class="cls-4" d="M282.07,214.78a2.35,2.35,0,0,1-2-1.07,126.75,126.75,0,0,1-16.83-49.92,2.32,2.32,0,1,1,4.62-.49c2.86,26.78,16,47.7,16.14,47.91a2.32,2.32,0,0,1-.72,3.21A2.26,2.26,0,0,1,282.07,214.78Z"/>
    <path class="cls-4" d="M263.41,152.4a2.32,2.32,0,0,1-2.32-2.19c-.07-1.14-1.68-28.15,0-44.91a2.32,2.32,0,1,1,4.62.47c-1.65,16.38,0,43.88,0,44.16a2.33,2.33,0,0,1-2.18,2.46Z"/>
    <path class="cls-4" d="M266,91.09a2.09,2.09,0,0,1-.49,0,2.33,2.33,0,0,1-1.79-2.76c.29-1.32,7-32.49,12.68-41.14a2.32,2.32,0,1,1,3.88,2.56c-5.22,7.93-11.94,39.24-12,39.55A2.33,2.33,0,0,1,266,91.09Z"/>
    <path class="cls-4" d="M322.8,59a2.32,2.32,0,0,1-2.05-1.22c-6.46-11.9-13.6-18.65-20.64-19.52s-12.06,4.39-12.1,4.44a2.33,2.33,0,0,1-3.43-3.14c.27-.29,6.62-7.09,16.1-5.92,8.72,1.08,16.85,8.45,24.16,21.92a2.34,2.34,0,0,1-.94,3.16A2.31,2.31,0,0,1,322.8,59Z"/>
    <path class="cls-4" d="M281.72,80.36a2.12,2.12,0,0,1-.42,0,2.32,2.32,0,0,1-1.87-2.7c4.81-26.33,18.75-28.9,19.34-29a2.33,2.33,0,0,1,.78,4.59c-.11,0-2.87.62-6.08,3.85s-7.26,9.36-9.46,21.39A2.32,2.32,0,0,1,281.72,80.36Z"/>
    <path class="cls-4" d="M276.61,136.29h0a2.33,2.33,0,0,1-2.33-2.33c0-34.59,3.16-43.35,3.29-43.71a2.33,2.33,0,0,1,4.37,1.61c-.07.18-3,9-3,42.11A2.33,2.33,0,0,1,276.61,136.29Z"/>
    <path class="cls-4" d="M282.06,182.26a2.32,2.32,0,0,1-2.27-1.85c-3.61-17.34-4.94-31-5-31.19a2.32,2.32,0,0,1,2.09-2.54,2.34,2.34,0,0,1,2.54,2.1c0,.13,1.32,13.6,4.87,30.68a2.32,2.32,0,0,1-1.8,2.75A2,2,0,0,1,282.06,182.26Z"/>
    <path class="cls-4" d="M290.74,123.22a2.33,2.33,0,0,1-2.33-2.31c0-.23,0-5.72.82-15a2.32,2.32,0,0,1,4.63.43c-.84,9-.8,14.45-.8,14.51a2.34,2.34,0,0,1-2.3,2.35Z"/>
    <path class="cls-4" d="M336.55,88.74a2.33,2.33,0,0,1-2.11-1.33c-5.5-11.7-9.17-14.13-9.37-14.26A2.33,2.33,0,0,1,327.16,69c.81.39,5.17,3,11.49,16.44a2.33,2.33,0,0,1-2.1,3.31Z"/>
    <path class="cls-4" d="M297.57,191.16a2.34,2.34,0,0,1-2.29-1.91,417,417,0,0,1-6.39-55.82,2.32,2.32,0,0,1,2.26-2.39h.07a2.31,2.31,0,0,1,2.32,2.25,411,411,0,0,0,6.32,55.12,2.33,2.33,0,0,1-1.87,2.71A3,3,0,0,1,297.57,191.16Z"/>
    <path class="cls-4" d="M311.54,186.35a2.33,2.33,0,0,1-2.29-1.93c-4.64-27-4.3-40.84-4.29-41.42a2.33,2.33,0,1,1,4.65.13c0,.14-.32,14,4.23,40.5a2.32,2.32,0,0,1-1.9,2.68A1.81,1.81,0,0,1,311.54,186.35Z"/>
    <path class="cls-4" d="M326.25,175.79a2.31,2.31,0,0,1-2.29-2c-2.46-16.3-4-33.73-4-33.9a2.33,2.33,0,0,1,4.64-.41c0,.18,1.53,17.46,4,33.62a2.33,2.33,0,0,1-2,2.65A2,2,0,0,1,326.25,175.79Z"/>
    <path class="cls-4" d="M342.18,156.06a2.33,2.33,0,0,1-2.29-1.93l-6.46-37.72a2.32,2.32,0,1,1,4.58-.79l6.47,37.73a2.33,2.33,0,0,1-1.9,2.68A2.69,2.69,0,0,1,342.18,156.06Z"/>
    <path class="cls-4" d="M358.89,142a2.33,2.33,0,0,1-2.22-1.62c-7.87-24.66-16.45-41-16.54-41.12a2.33,2.33,0,1,1,4.11-2.18c.09.16,8.85,16.8,16.86,41.89a2.32,2.32,0,0,1-1.5,2.92A2.23,2.23,0,0,1,358.89,142Z"/>
    <path class="cls-5" d="M321.88,274.7a117,117,0,0,1-26.65-3.57,2.33,2.33,0,0,1,1.2-4.5A113.72,113.72,0,0,0,321.88,270h0a2.33,2.33,0,0,1,0,4.66Z"/>
    <path class="cls-5" d="M305.11,258.14a2.25,2.25,0,0,1-.58-.08,103,103,0,0,1-21.77-8.89,2.33,2.33,0,0,1,2.29-4.06,99.19,99.19,0,0,0,20.63,8.45,2.33,2.33,0,0,1-.57,4.58Z"/>
    <path class="cls-5" d="M306.17,243.53a2.3,2.3,0,0,1-1.4-.48,91.08,91.08,0,0,1-17.7-18.15,2.32,2.32,0,1,1,3.8-2.67,88.74,88.74,0,0,0,16.71,17.12,2.33,2.33,0,0,1-1.41,4.18Z"/>
    <path class="cls-5" d="M319.94,236.18a2.29,2.29,0,0,1-1.63-.67c-11-10.75-18.24-29.18-18.55-30a2.33,2.33,0,1,1,4.34-1.7c.07.19,7.23,18.3,17.47,28.34a2.32,2.32,0,0,1,0,3.29A2.29,2.29,0,0,1,319.94,236.18Z"/>
    <path class="cls-5" d="M328.65,221.11a2.33,2.33,0,0,1-1.94-1.05c-8.5-12.89-10.08-28.91-10.14-29.59a2.32,2.32,0,0,1,4.63-.43c0,.15,1.55,15.56,9.39,27.46a2.33,2.33,0,0,1-1.94,3.61Z"/>
    <path class="cls-5" d="M339.88,208.32a2.34,2.34,0,0,1-2.14-1.41,65.31,65.31,0,0,1-4.91-26.53,2.33,2.33,0,0,1,4.65.26h0A61.51,61.51,0,0,0,342,205.08a2.33,2.33,0,0,1-2.14,3.24Z"/>
    <path class="cls-5" d="M353.35,195.08a2.34,2.34,0,0,1-2.19-1.54A65,65,0,0,1,347.32,167a2.32,2.32,0,1,1,4.62.5,61.67,61.67,0,0,0,3.6,24.46,2.33,2.33,0,0,1-1.4,3A2.44,2.44,0,0,1,353.35,195.08Z"/>
    <path class="cls-5" d="M369.56,185.33a2.33,2.33,0,0,1-2.25-1.74c-3-11.67-3-26.85-3-27.49a2.34,2.34,0,0,1,2.33-2.32h0a2.33,2.33,0,0,1,2.33,2.33c0,.15,0,15.23,2.89,26.31a2.34,2.34,0,0,1-1.67,2.84A2.38,2.38,0,0,1,369.56,185.33Z"/>
    <path class="cls-5" d="M387.93,181.38a2.32,2.32,0,0,1-2.32-2.33c0-39.45-19.78-69.35-20-69.65a2.32,2.32,0,0,1,3.86-2.59c.85,1.26,20.77,31.32,20.77,72.24A2.33,2.33,0,0,1,387.93,181.38Z"/>
    <path class="cls-5" d="M398.73,128.77a2.32,2.32,0,0,1-2.16-1.48,76.48,76.48,0,0,0-13.24-21.49,2.33,2.33,0,1,1,3.4-3.18,79.83,79.83,0,0,1,14.16,23,2.34,2.34,0,0,1-2.16,3.19Z"/>
    <path class="cls-5" d="M421,139.42a2.33,2.33,0,0,1-2.21-1.61c-8.35-25.72-17.91-33.89-18-34a2.33,2.33,0,0,1,3-3.6c.43.35,10.64,8.9,19.49,36.13a2.34,2.34,0,0,1-1.5,2.93A2.27,2.27,0,0,1,421,139.42Z"/>
    <path class="cls-5" d="M447.33,151.32a2.34,2.34,0,0,1-2.24-1.68c-8.5-29.83-24.29-46-24.45-46.15a2.33,2.33,0,0,1,3.3-3.28c.68.69,16.77,17.1,25.63,48.15a2.32,2.32,0,0,1-1.6,2.87A2.35,2.35,0,0,1,447.33,151.32Z"/>
    <path class="cls-5" d="M462.23,135.69a2.33,2.33,0,0,1-2.1-1.31,237.73,237.73,0,0,0-17.87-30,2.33,2.33,0,0,1,3.78-2.72,244.38,244.38,0,0,1,18.27,30.73,2.32,2.32,0,0,1-1.06,3.11A2.34,2.34,0,0,1,462.23,135.69Z"/>
    <path class="cls-5" d="M489.94,141.37a2.34,2.34,0,0,1-2.06-1.24C475.71,117.18,466.12,107.9,466,107.8a2.33,2.33,0,0,1,3.21-3.37c.41.39,10.18,9.8,22.76,33.52a2.33,2.33,0,0,1-1,3.15A2.37,2.37,0,0,1,489.94,141.37Z"/>
    <path class="cls-5" d="M517.24,155a2.32,2.32,0,0,1-2.16-1.46c-9.6-23.91-21-34.49-21.12-34.59a2.33,2.33,0,1,1,3.13-3.44c.49.44,12.26,11.29,22.31,36.3a2.32,2.32,0,0,1-2.16,3.19Z"/>
    <path class="cls-5" d="M556,157.05a2.34,2.34,0,0,1-1.77-.81c-13.85-16.13-33.09-25.69-33.28-25.79a2.33,2.33,0,0,1,2.05-4.18c.82.41,20.27,10.07,34.76,26.94a2.33,2.33,0,0,1-.25,3.28A2.3,2.3,0,0,1,556,157.05Z"/>
    <path class="cls-5" d="M406.64,182.26h-.18a2.33,2.33,0,0,1-2.14-2.5,130.64,130.64,0,0,0-3.56-40.09,2.33,2.33,0,1,1,4.48-1.26,133.06,133.06,0,0,1,3.72,41.7A2.32,2.32,0,0,1,406.64,182.26Z"/>
    <path class="cls-5" d="M426.18,185.12h0a2.33,2.33,0,0,1-2.31-2.34c.11-17.81-2.43-29.47-2.45-29.59a2.32,2.32,0,0,1,4.54-1c.11.49,2.67,12.24,2.56,30.61A2.34,2.34,0,0,1,426.18,185.12Z"/>
    <path class="cls-5" d="M444.14,189.42a2.31,2.31,0,0,1-2.31-2.14,196.26,196.26,0,0,0-3.42-24.48,2.33,2.33,0,1,1,4.55-1,201.78,201.78,0,0,1,3.51,25.12,2.34,2.34,0,0,1-2.14,2.5Z"/>
    <path class="cls-5" d="M464.09,198.5H464a2.32,2.32,0,0,1-2.27-2.38c.39-16.87-4.63-34-4.68-34.21a2.33,2.33,0,1,1,4.46-1.32c.22.72,5.28,18,4.87,35.64A2.32,2.32,0,0,1,464.09,198.5Z"/>
    <path class="cls-5" d="M483.39,185.8a2.33,2.33,0,0,1-2.29-1.93c-3.08-17.55-10.28-35.59-10.35-35.77a2.33,2.33,0,1,1,4.32-1.73c.3.75,7.45,18.66,10.61,36.7a2.32,2.32,0,0,1-1.89,2.69A1.81,1.81,0,0,1,483.39,185.8Z"/>
    <path class="cls-5" d="M544.6,184.88a2.33,2.33,0,0,1-2.27-1.82,93.16,93.16,0,0,0-10.06-25.13,2.33,2.33,0,1,1,4-2.44,96.11,96.11,0,0,1,10.64,26.56,2.33,2.33,0,0,1-1.76,2.78A2.94,2.94,0,0,1,544.6,184.88Z"/>
    <path class="cls-5" d="M523.15,181.31a2.33,2.33,0,0,1-2.33-2.33c0-3.3-1.51-10.54-2.09-13.06a2.33,2.33,0,1,1,4.53-1c.09.39,2.21,9.61,2.21,14.11A2.32,2.32,0,0,1,523.15,181.31Z"/>
    <path class="cls-5" d="M378.73,404.77a2.33,2.33,0,0,1-1.3-4.26c15.37-10.31,27.24-30.5,27.36-30.7a2.33,2.33,0,0,1,4,2.34c-.5.87-12.53,21.32-28.79,32.22A2.3,2.3,0,0,1,378.73,404.77Z"/>
    <path class="cls-5" d="M342.66,403c-1,0-1.93,0-2.91-.1a2.33,2.33,0,0,1,.33-4.64c12.83.93,25.27-5.61,25.4-5.67a2.32,2.32,0,0,1,2.19,4.1C367.15,397,355.71,403,342.66,403Z"/>
    <path class="cls-5" d="M415.18,400.37a2.32,2.32,0,0,1-2-3.54c8-13.18,10.31-23.81,10.33-23.91a2.33,2.33,0,0,1,4.56.93c-.1.47-2.42,11.48-10.92,25.41A2.34,2.34,0,0,1,415.18,400.37Z"/>
    <path class="cls-5" d="M440.68,395.51a2.25,2.25,0,0,1-.87-.17,2.33,2.33,0,0,1-1.29-3c3-7.34,3-9.35,3-9.43a.71.71,0,0,0,0,.25l4.58-.78c.28,1.58-.9,5.74-3.31,11.7A2.33,2.33,0,0,1,440.68,395.51Z"/>
    <path class="cls-5" d="M334.26,419.56c-6.74,0-11.73-.44-12.2-.48a2.32,2.32,0,1,1,.42-4.63c.27,0,26.48,2.33,40.42-3.82a2.33,2.33,0,0,1,1.88,4.26C356.07,418.73,343.51,419.56,334.26,419.56Z"/>
    <path class="cls-5" d="M367.77,431.31a2.32,2.32,0,0,1-.57-4.58c15.75-4,30.93-17.18,31.08-17.31a2.33,2.33,0,1,1,3.07,3.5c-.65.57-16.16,14-33,18.32A2.22,2.22,0,0,1,367.77,431.31Z"/>
    <path class="cls-4" d="M317,437.14h-.14c-28-1.68-43.15-12.05-43.78-12.49a2.32,2.32,0,1,1,2.66-3.81c.2.14,14.82,10.06,41.4,11.66a2.33,2.33,0,0,1-.14,4.65Z"/>
    <path class="cls-5" d="M338.6,439c-3.27,0-5.71-.16-6-.18a2.33,2.33,0,0,1,.34-4.64c3.69.26,14.35.5,19.19-1.54A2.32,2.32,0,1,1,354,437C349.92,438.67,343.38,439,338.6,439Z"/>
    <path class="cls-5" d="M406.8,431.31a2.32,2.32,0,0,1-1.39-4.18c8-6,19.81-22.72,19.92-22.88a2.33,2.33,0,1,1,3.81,2.67c-.5.71-12.36,17.49-20.94,23.93A2.35,2.35,0,0,1,406.8,431.31Z"/>
    <path class="cls-5" d="M363.84,451.22a2.32,2.32,0,0,1-.14-4.64c10.87-.66,26.58-9.05,26.74-9.13a2.33,2.33,0,1,1,2.2,4.1c-.68.36-16.76,8.95-28.66,9.67Z"/>
    <path class="cls-4" d="M333.33,454.83a144.16,144.16,0,0,1-31-3.95,2.32,2.32,0,0,1,1.13-4.51c.26.06,26.26,6.49,43.08,2.48a2.32,2.32,0,0,1,1.08,4.52A62.26,62.26,0,0,1,333.33,454.83Z"/>
    <path class="cls-4" d="M337.47,472.45a2.33,2.33,0,0,1-.08-4.65c.31,0,31.26-1.21,52.58-11.78a2.32,2.32,0,1,1,2.06,4.16c-22.23,11-53.17,12.22-54.48,12.26Z"/>
    <path class="cls-5" d="M406.8,451.22a2.32,2.32,0,0,1-1.12-4.36c.2-.11,20.08-11.16,29-24.19a2.33,2.33,0,1,1,3.84,2.63c-9.54,13.95-29.73,25.16-30.59,25.63A2.26,2.26,0,0,1,406.8,451.22Z"/>
    <path class="cls-4" d="M365.68,484.23a2.32,2.32,0,0,1-.25-4.63c.3,0,29.82-3.43,48.88-17a2.32,2.32,0,0,1,2.69,3.79c-20.06,14.24-49.8,17.65-51.06,17.79Z"/>
    <path class="cls-5" d="M430,457.64a2.33,2.33,0,0,1-.92-4.47h0c.17-.07,17.26-7.65,24.67-25.68a2.33,2.33,0,0,1,4.31,1.77c-8.16,19.83-26.37,27.85-27.14,28.19A2.48,2.48,0,0,1,430,457.64Z"/>
    <path class="cls-5" d="M466.68,464.07a2.37,2.37,0,0,1-.94-.2,2.33,2.33,0,0,1-1.19-3.07c4.51-10.19,6.63-30.45,6.65-30.65a2.33,2.33,0,0,1,4.63.47c-.09.86-2.22,21.2-7,32.06A2.32,2.32,0,0,1,466.68,464.07Z"/>
    <path class="cls-4" d="M440,472.45a2.33,2.33,0,0,1-1.4-4.19,66.76,66.76,0,0,0,12.46-13,2.33,2.33,0,0,1,3.81,2.67A70,70,0,0,1,441.35,472,2.35,2.35,0,0,1,440,472.45Z"/>
    <path class="cls-4" d="M403.79,494.51a2.32,2.32,0,0,1-.66-4.55c.16,0,15.48-4.62,25.38-13.14a2.33,2.33,0,1,1,3,3.53c-10.67,9.18-26.43,13.87-27.1,14.07A2.37,2.37,0,0,1,403.79,494.51Z"/>
    <path class="cls-4" d="M436.59,499.55a2.33,2.33,0,0,1-1-4.44c10-4.64,19.11-21.88,19.21-22.06a2.32,2.32,0,1,1,4.11,2.17c-.4.76-10,18.81-21.35,24.11A2.29,2.29,0,0,1,436.59,499.55Z"/>
    <path class="cls-3" d="M473.7,495.61a2.31,2.31,0,0,1-2-3.46c15.49-27.59,15.58-60.65,15.58-61a2.32,2.32,0,0,1,2.32-2.33h0a2.34,2.34,0,0,1,2.33,2.32c0,1.4-.07,34.58-16.18,63.27A2.3,2.3,0,0,1,473.7,495.61Z"/>
    <path class="cls-3" d="M499.94,491.94a2.36,2.36,0,0,1-.78-.13,2.34,2.34,0,0,1-1.41-3c6.13-17.09,8.06-46.83,8.08-47.12a2.32,2.32,0,1,1,4.64.29c-.08,1.24-2,30.7-8.34,48.4A2.32,2.32,0,0,1,499.94,491.94Z"/>
    <path class="cls-3" d="M521.87,485.19a2.32,2.32,0,0,1-2.19-3.1c6.21-17.68,6-40,6-40.21a2.32,2.32,0,0,1,2.29-2.36h0a2.32,2.32,0,0,1,2.32,2.29c0,.94.28,23.34-6.21,41.82A2.34,2.34,0,0,1,521.87,485.19Z"/>
    <path class="cls-3" d="M542.13,476.46a2.64,2.64,0,0,1-.62-.08,2.33,2.33,0,0,1-1.63-2.86c5-18.3,5-44.87,5-45.14a2.32,2.32,0,0,1,2.32-2.33h0a2.32,2.32,0,0,1,2.33,2.32c0,1.12,0,27.47-5.19,46.38A2.33,2.33,0,0,1,542.13,476.46Z"/>
    <path class="cls-5" d="M562.17,460.16a2.27,2.27,0,0,1-.62-.09,2.32,2.32,0,0,1-1.62-2.86c4-14.27,1.83-35,1.81-35.19a2.33,2.33,0,0,1,4.63-.48c.09.88,2.24,21.79-2,36.91A2.33,2.33,0,0,1,562.17,460.16Z"/>
    <path class="cls-3" d="M482.84,415.09c-16.69,0-33.88-5.61-34.76-5.9a2.33,2.33,0,1,1,1.46-4.42c.25.09,25.3,8.25,43.2,4.82,25.92-5,37.06-24.83,37.17-25a2.32,2.32,0,0,1,1.86-1.21,2.38,2.38,0,0,1,2,.91c.1.14,10.89,14.07,25.93,17.67a2.32,2.32,0,0,1-1.08,4.52c-12.72-3-22.37-12.34-26.44-16.86a61.14,61.14,0,0,1-38.6,24.57A57.7,57.7,0,0,1,482.84,415.09Z"/>
    <path class="cls-3" d="M432.21,90.75a2.36,2.36,0,0,1-1.47-.52,2.33,2.33,0,0,1-.33-3.27c.17-.21,17-20.81,24.89-30a2.33,2.33,0,1,1,3.52,3c-7.88,9.13-24.63,29.68-24.8,29.89A2.33,2.33,0,0,1,432.21,90.75Z"/>
    <path class="cls-3" d="M452.41,91.74a2.33,2.33,0,0,1-2-3.57C451.16,87,468,60.33,472.31,54a2.32,2.32,0,1,1,3.85,2.6c-4.24,6.28-21.61,33.77-21.78,34.05A2.34,2.34,0,0,1,452.41,91.74Z"/>
    <path class="cls-3" d="M468.72,92.93a2.33,2.33,0,0,1-2.1-3.31L476,69.43a2.33,2.33,0,0,1,4.22,2l-9.43,20.2A2.33,2.33,0,0,1,468.72,92.93Z"/>
    <path class="cls-3" d="M483,96.81a2.3,2.3,0,0,1-.58-.07,2.32,2.32,0,0,1-1.67-2.84l9.16-35.45a2.32,2.32,0,1,1,4.5,1.16L485.2,95.07A2.32,2.32,0,0,1,483,96.81Z"/>
    <path class="cls-3" d="M497.7,102.44l-.3,0a2.32,2.32,0,0,1-2-2.61l3.93-29.71a2.33,2.33,0,1,1,4.61.61L500,100.42A2.34,2.34,0,0,1,497.7,102.44Z"/>
    <path class="cls-3" d="M513.42,114.67a2.33,2.33,0,0,1-2.32-2.25L509,50.86a2.33,2.33,0,0,1,4.65-.16l2.09,61.57a2.32,2.32,0,0,1-2.24,2.4Z"/>
    <path class="cls-3" d="M465,50.23a2.33,2.33,0,0,1-1.85-3.74c.54-.71,13.39-17.38,26.38-17.94a21.22,21.22,0,0,1,19.44,10.67,2.32,2.32,0,1,1-4.11,2.17,16.67,16.67,0,0,0-14.32-8.21c-.27,0-.54,0-.81,0-10.81.47-22.76,15.95-22.88,16.11A2.33,2.33,0,0,1,465,50.23Z"/>
    <path class="cls-3" d="M496.92,47.87a2.41,2.41,0,0,1-1.28-.38,8,8,0,0,0-9.1-.1,2.33,2.33,0,0,1-2.83-3.69,12.56,12.56,0,0,1,14.49-.1,2.33,2.33,0,0,1-1.28,4.27Z"/>
    <path class="cls-3" d="M354.2,371c-10.77,0-20.36-3.21-34-10.9-15.49-8.73-32.63-9.43-45.84-1.88-14,8-24.1,11.44-35.9,12.19-15.12,1-33.64-10.91-35.7-12.26-5.13-3.39-17.4-4.57-21.69-4.74a2.33,2.33,0,0,1,.18-4.65c.69,0,16.8.71,24.07,5.5,7,4.61,21.76,12.21,32.84,11.51s20.54-3.95,33.89-11.59c14.65-8.37,33.5-7.68,50.43,1.86,16.32,9.2,26,11.57,39.66,9.74,5.3-.7,9.84-3.46,15.09-6.66,7.49-4.56,16-9.73,29.41-10.75,16.89-1.29,28.43,5.88,36.87,11.11a49.24,49.24,0,0,0,8.11,4.45,38.33,38.33,0,0,0,15.71,2.3,2.33,2.33,0,0,1,.53,4.62A42.51,42.51,0,0,1,450,368.31a52.79,52.79,0,0,1-9-4.86c-8.33-5.17-18.7-11.6-34.06-10.43-12.31.93-20.3,5.8-27.34,10.09-5.46,3.32-10.62,6.46-16.89,7.3A65.94,65.94,0,0,1,354.2,371Z"/>
    <path class="cls-3" d="M354.2,391.3c-10.77,0-20.36-3.22-34-10.91-15.49-8.73-32.63-9.43-45.84-1.87-14,8-24.1,11.43-35.9,12.19-15.12,1-33.64-10.91-35.7-12.27-5.13-3.38-17.4-4.57-21.69-4.74a2.33,2.33,0,0,1,.18-4.65c.69,0,16.8.72,24.07,5.5,7,4.61,21.76,12.22,32.84,11.51s20.54-3.95,33.89-11.58c14.65-8.38,33.5-7.68,50.43,1.86,16.32,9.19,26,11.56,39.66,9.74,5.3-.71,9.84-3.47,15.09-6.66,7.49-4.57,16-9.74,29.41-10.76,16.89-1.29,28.43,5.89,36.87,11.12a49.85,49.85,0,0,0,8.11,4.44,38.12,38.12,0,0,0,15.71,2.3,2.33,2.33,0,0,1,.53,4.63A42.81,42.81,0,0,1,450,388.59a52.1,52.1,0,0,1-9-4.86c-8.33-5.17-18.7-11.6-34.06-10.43-12.31.94-20.3,5.8-27.34,10.09-5.46,3.32-10.62,6.47-16.89,7.3A64.28,64.28,0,0,1,354.2,391.3Z"/>
    <path class="cls-3" d="M495.69,261.9a2.32,2.32,0,0,1-2-1.17,59.61,59.61,0,0,1-6-16.36A90.26,90.26,0,0,1,486,228.26a2.33,2.33,0,0,1,4.66,0,86.32,86.32,0,0,0,1.52,15.19,55.9,55.9,0,0,0,5.5,14.93,2.33,2.33,0,0,1-.87,3.17A2.28,2.28,0,0,1,495.69,261.9Z"/>
    <path class="cls-5" d="M516.26,250.84a2.31,2.31,0,0,1-1.76-.81l-6.91-8a2.33,2.33,0,0,1,3.53-3l4.86,5.65,3.88-6.14a2.33,2.33,0,0,1,3.93,2.49l-5.56,8.8a2.33,2.33,0,0,1-1.8,1.07Z"/>
    <path class="cls-5" d="M319.77,127.7a2.33,2.33,0,0,1-1.67-.71l-12.5-12.83a2.33,2.33,0,1,1,3.33-3.25l12.5,12.84a2.32,2.32,0,0,1-1.66,4Z"/>
    <path class="cls-5" d="M307.27,127.7a2.32,2.32,0,0,1-1.67-4l12.5-12.84a2.33,2.33,0,1,1,3.33,3.25L308.93,127A2.3,2.3,0,0,1,307.27,127.7Z"/>
    <path class="cls-4" d="M293,95.84l-.3,0a2.31,2.31,0,0,1-2-2.6c.09-.71,2.28-17.5,6.63-24.39,2.52-4,5.64-6.45,9.26-7.25a13,13,0,0,1,9.16,1.56,2.32,2.32,0,0,1-2.51,3.91c-.69-.43-6.82-3.92-12,4.26-3,4.83-5.22,16.83-6,22.5A2.33,2.33,0,0,1,293,95.84Z"/>
    <path class="cls-4" d="M328.12,102.37a2.33,2.33,0,0,1-2.17-1.48c-4.1-10.52-7.56-13.63-9.74-14.39a4.51,4.51,0,0,0-3.95.62c-2.49,1.45-3.64,6.29-3.85,7.87a2.32,2.32,0,0,1-4.61-.59c.11-.85,1.2-8.43,6.12-11.3a9.07,9.07,0,0,1,7.82-1c4.58,1.6,8.68,7.19,12.54,17.1a2.32,2.32,0,0,1-1.32,3A2.24,2.24,0,0,1,328.12,102.37Z"/>
    <path class="cls-5" d="M581,430.7h-.09a2.32,2.32,0,0,1-2.23-2.41,44,44,0,0,0-4.91-21.46,2.33,2.33,0,1,1,4-2.34,47.73,47.73,0,0,1,5.53,24A2.32,2.32,0,0,1,581,430.7Z"/>
    <path class="cls-5" d="M592.13,409.2a2.34,2.34,0,0,1-2.28-1.88,29.47,29.47,0,0,0-4.17-10.25,2.32,2.32,0,1,1,3.77-2.71,33.29,33.29,0,0,1,5,12.06,2.32,2.32,0,0,1-1.83,2.73A2.4,2.4,0,0,1,592.13,409.2Z"/>
    <path class="cls-5" d="M611.55,322.08a2.31,2.31,0,0,1-1.3-.4c-8.71-5.9-8.86-13.31-8.86-13.63a2.33,2.33,0,0,1,2.31-2.34h0A2.32,2.32,0,0,1,606,308c0,.28.27,5.4,6.81,9.83a2.32,2.32,0,0,1-1.3,4.25Z"/>
    <path class="cls-5" d="M606.83,345.87a2.3,2.3,0,0,1-1.66-.71c-17.26-17.77-16.9-33.74-16.88-34.41a2.34,2.34,0,0,1,2.41-2.24,2.31,2.31,0,0,1,2.24,2.39,30.61,30.61,0,0,0,1.79,9.34c1.73,5.2,5.52,13.18,13.77,21.68a2.32,2.32,0,0,1-1.67,3.95Z"/>
    <path class="cls-5" d="M587.57,351.91a2.33,2.33,0,0,1-2-1.16c-14.82-25.42-11.78-41.94-11.65-42.63a2.33,2.33,0,0,1,4.57.89c-.05.24-2.71,15.72,11.1,39.4a2.33,2.33,0,0,1-.84,3.18A2.37,2.37,0,0,1,587.57,351.91Z"/>
    <path class="cls-3" d="M627.93,400.9c-11.2,0-23.94-6.87-31.7-11l-2.15-1.16c-9.77-5.16-21.59-4.85-21.72-4.85a2.36,2.36,0,0,1-2.4-2.25,2.33,2.33,0,0,1,2.26-2.4c.53,0,13.19-.35,24,5.39l2.18,1.17c7.7,4.16,20.57,11.11,30.85,10.45,11-.7,20.53-3.95,33.89-11.58a45.44,45.44,0,0,1,23.6-5.81,2.33,2.33,0,0,1-.09,4.65,40.78,40.78,0,0,0-21.2,5.2c-14,8-24.1,11.44-35.91,12.19C629,400.88,628.49,400.9,627.93,400.9Z"/>
    <path class="cls-3" d="M627.93,380.4c-11.2,0-23.94-6.87-31.7-11l-2.15-1.15c-9.73-5.15-21.6-4.86-21.72-4.85a2.33,2.33,0,1,1-.14-4.65c.53,0,13.19-.35,24,5.39l2.18,1.17c7.7,4.15,20.56,11.11,30.85,10.45,11-.7,20.53-3.95,33.89-11.59a45.64,45.64,0,0,1,23.6-5.81,2.33,2.33,0,1,1-.09,4.65,40.88,40.88,0,0,0-21.2,5.2c-14,8-24.1,11.44-35.91,12.19C629,380.39,628.49,380.4,627.93,380.4Z"/>
    <path class="cls-5" d="M567.11,347.74a2.31,2.31,0,0,1-2.14-1.42c-10.37-24.36-6.88-41.69-6.73-42.42a2.33,2.33,0,0,1,4.56,1c0,.19-3.3,16.75,6.45,39.64a2.33,2.33,0,0,1-1.23,3.05A2.29,2.29,0,0,1,567.11,347.74Z"/>
    <circle class="cls-5" cx="494.24" cy="384.95" r="3.03"/>
    <circle class="cls-5" cx="482.76" cy="378.08" r="3.03"/>
    <circle class="cls-5" cx="549.33" cy="361.85" r="3.03"/>
    <circle class="cls-5" cx="560.48" cy="373.39" r="3.03"/>
    <circle class="cls-5" cx="544.68" cy="373.39" r="3.03"/>
    <circle class="cls-5" cx="563.75" cy="389.85" r="3.03"/>
    <circle class="cls-5" cx="504.93" cy="373.39" r="3.03"/>
    <circle class="cls-5" cx="506.44" cy="391.72" r="3.03"/>
    <circle class="cls-5" cx="518.53" cy="381.12" r="3.03"/>
    <circle class="cls-5" cx="484.37" cy="399.22" r="3.03"/>
    <circle class="cls-5" cx="549.9" cy="384.95" r="3.03"/>
    <circle class="cls-5" cx="514.45" cy="362.78" r="3.03"/>
    <path class="cls-3" d="M399.65,245.18a85,85,0,0,0-31.33,20.22,3.82,3.82,0,0,0-1.21,2.62,4,4,0,0,0,.9,2.77c.82,1,11.78,16.39,28.54,27.07a43,43,0,0,1-7.41-24.37A42.47,42.47,0,0,1,399.65,245.18Z"/>
    <path class="cls-3" d="M482,275.71c-.72-1-10.2-16.32-26.72-26.43a43.1,43.1,0,0,1,7.29,24.21,42.27,42.27,0,0,1-12.28,30.19c18.84-7.44,30.54-22,31.39-22.85A4,4,0,0,0,482,275.71Z"/>
    <path class="cls-4" d="M411.71,272.78c0-13.43,2.63-25.22,6.58-31.87a76.41,76.41,0,0,0-18.64,4.27,42.47,42.47,0,0,0-10.51,28.31,43,43,0,0,0,7.41,24.37,63.5,63.5,0,0,0,23.62,9.45C415.19,301.54,411.71,288.26,411.71,272.78Z"/>
    <path class="cls-4" d="M462.55,273.49a43.1,43.1,0,0,0-7.29-24.21,58.42,58.42,0,0,0-22-8.16c3.88,6.68,6.46,18.36,6.46,31.66,0,16-3.74,29.72-9,35.12l.87,0a60.49,60.49,0,0,0,18.65-4.2A42.27,42.27,0,0,0,462.55,273.49Z"/>
    <path class="cls-6" d="M425,240.54c-2.31,0-4.55.16-6.74.37-4,6.65-6.58,18.44-6.58,31.87,0,15.48,3.48,28.76,8.46,34.53a47.71,47.71,0,0,0,5.24.58c1.15.05,2.3.07,3.44.07.63,0,1.27,0,1.9-.06,5.27-5.4,9-19.09,9-35.12,0-13.3-2.58-25-6.46-31.66a51.66,51.66,0,0,0-7.44-.57Z"/>
    <circle class="cls-3" cx="441.97" cy="262.31" r="7.48"/>
    <circle class="cls-3" cx="430.55" cy="274.34" r="3.95"/>
    <path class="cls-3" d="M558,267.16a39.86,39.86,0,0,1,4.29-23.66,77,77,0,0,0-21.43,23.39,3.71,3.71,0,0,0-.53,2.59,3.66,3.66,0,0,0,1.3,2.3c.82.66,11.63,10.89,26.41,17.27A39,39,0,0,1,558,267.16Z"/>
    <path class="cls-3" d="M639.69,253.34c-.75-.67-10.36-11-24.62-17.05A39.08,39.08,0,0,1,625,258a39.76,39.76,0,0,1-5.31,25.48c13.52-10.37,20.19-24.63,20.73-25.52A3.8,3.8,0,0,0,639.69,253.34Z"/>
    <path class="cls-4" d="M625,258a39.08,39.08,0,0,0-9.9-21.74A52.23,52.23,0,0,0,596.88,232c4.13,5.55,7.31,16.93,7.93,30.21s-1.47,24.82-5,30.79c1.06-.24,2.11-.5,3.14-.81a52.52,52.52,0,0,0,16.75-8.72A39.76,39.76,0,0,0,625,258Z"/>
    <path class="cls-4" d="M580.63,263.49c-.6-13,1.39-24.36,4.82-30.43l-.92.19a65.12,65.12,0,0,0-22.24,10.25A39.86,39.86,0,0,0,558,267.16a39,39,0,0,0,10,21.89,58,58,0,0,0,20.8,5C584.57,288.67,581.26,277.07,580.63,263.49Z"/>
    <path class="cls-6" d="M592.73,232h-.1a44.45,44.45,0,0,0-7.18,1c-3.43,6.07-5.42,17.47-4.82,30.43.63,13.58,3.94,25.18,8.21,30.58a42.15,42.15,0,0,0,8.79-.58c.72-.13,1.43-.29,2.14-.45,3.57-6,5.65-17.57,5-30.79S601,237.59,596.88,232C595.51,232,594.13,232,592.73,232Z"/>
    <circle class="cls-3" cx="606.56" cy="252.74" r="7.76"/>
    <circle class="cls-3" cx="594.72" cy="265.22" r="4.1"/>
    <path class="cls-5" d="M503,178.77a2.33,2.33,0,0,1-2.31-2.07c-1.17-10.4-6-23-6-23.18a2.32,2.32,0,1,1,4.34-1.66c.21.53,5.08,13.33,6.32,24.32a2.33,2.33,0,0,1-2.05,2.57Z"/>
</svg>
